<svg xmlns="http://www.w3.org/2000/svg" width="16" height="16" viewBox="0 0 16 16">
  <g id="Groupe_1" data-name="Groupe 1" transform="translate(-466.999 -139)">
    <path id="Vector_2x" data-name="Vector@2x" d="M8,0a8,8,0,1,0,5.657,2.343A8,8,0,0,0,8,0ZM8,15.3a7.3,7.3,0,1,1,5.165-2.139A7.3,7.3,0,0,1,8,15.3Z" transform="translate(467 139)" fill="#00873c" fill-rule="evenodd"/>
    <path id="Vector_2x-1" data-name="Vector@2x-1" d="M8.787.1A.346.346,0,0,0,8.3.1L3.1,5.379.561,2.851a.326.326,0,0,0-.465,0,.334.334,0,0,0,0,.469l2.7,2.729.048.062a.348.348,0,0,0,.1.069.325.325,0,0,0,.389-.055l.048-.062L8.787.6a.356.356,0,0,0,0-.5Z" transform="translate(470.555 144.333)" fill="#00873c" fill-rule="evenodd"/>
  </g>
</svg>
