<svg width="135" height="144" viewBox="0 0 135 144" fill="none" xmlns="http://www.w3.org/2000/svg">
<g clip-path="url(#clip0)">
<path d="M49.7413 21.3284L52.813 18.7929C53.0634 18.5839 53.2726 18.3241 53.4285 18.0284C53.5844 17.7328 53.6839 17.4071 53.7212 17.0702C53.7586 16.7334 53.733 16.392 53.646 16.0657C53.5591 15.7394 53.4124 15.4347 53.2145 15.1692C53.0176 14.9016 52.7731 14.6782 52.495 14.5118C52.2169 14.3454 51.9107 14.2392 51.594 14.1994C51.2773 14.1596 50.9563 14.1869 50.6495 14.2798C50.3428 14.3727 50.0563 14.5294 49.8064 14.7408L48.9707 15.4007L45.7145 18.133C44.9776 18.6873 44.0855 18.9568 43.1856 18.8971L42.4692 18.874L43.6957 20.5064C44.4668 21.3541 45.4851 21.8972 46.5836 22.0465C47.682 22.1959 48.7955 21.9427 49.7413 21.3284Z" fill="#C66035"/>
<path d="M42.6545 24.8373C42.6574 25.3358 42.8451 25.8128 43.1765 26.1642C43.508 26.5156 43.9564 26.7129 44.4237 26.7129C44.8911 26.7129 45.3394 26.5156 45.6709 26.1642C46.0024 25.8128 46.19 25.3358 46.1929 24.8373C46.1929 24.3368 46.0065 23.8568 45.6747 23.5029C45.3429 23.149 44.8929 22.9502 44.4237 22.9502C43.9545 22.9502 43.5045 23.149 43.1727 23.5029C42.8409 23.8568 42.6545 24.3368 42.6545 24.8373Z" fill="#C66035"/>
<path d="M44.6194 21.6635C44.6194 21.9306 44.7189 22.1868 44.896 22.3757C45.073 22.5646 45.3132 22.6707 45.5637 22.6707C45.8141 22.6707 46.0543 22.5646 46.2314 22.3757C46.4085 22.1868 46.5079 21.9306 46.5079 21.6635C46.5079 21.3963 46.4085 21.1402 46.2314 20.9513C46.0543 20.7624 45.8141 20.6562 45.5637 20.6562C45.3132 20.6562 45.073 20.7624 44.896 20.9513C44.7189 21.1402 44.6194 21.3963 44.6194 21.6635Z" fill="#C66035"/>
<path d="M44.1304 21.9295C44.1332 22.7412 44.4375 23.5186 44.9766 24.0914C45.5157 24.6643 46.2457 24.9859 47.0066 24.9859C47.7676 24.9859 48.4976 24.6643 49.0366 24.0914C49.5757 23.5186 49.88 22.7412 49.8829 21.9295C49.88 21.1178 49.5757 20.3404 49.0366 19.7675C48.4976 19.1947 47.7676 18.873 47.0066 18.873C46.2466 18.8761 45.5183 19.1987 44.9798 19.7709C44.4413 20.3431 44.1361 21.1187 44.1304 21.9295Z" fill="#C66035"/>
<path d="M43.772 17.8672C43.772 18.2711 43.8467 18.671 43.9919 19.0439C44.1372 19.4169 44.35 19.7557 44.6182 20.0407C44.8865 20.3257 45.2048 20.5515 45.5551 20.705C45.9053 20.8585 46.2805 20.9367 46.6591 20.9352C47.0386 20.9383 47.415 20.8612 47.7665 20.7083C48.1179 20.5555 48.4376 20.33 48.707 20.0448C48.9764 19.7596 49.1902 19.4204 49.3361 19.0466C49.482 18.6729 49.5571 18.272 49.5571 17.8672C49.5542 17.0555 49.2499 16.2781 48.7108 15.7052C48.1717 15.1324 47.4418 14.8107 46.6808 14.8107C46.3013 14.8062 45.9246 14.8817 45.5726 15.0331C45.2206 15.1846 44.9001 15.4088 44.6297 15.6929C44.3593 15.977 44.1443 16.3154 43.9971 16.6886C43.8499 17.0618 43.7734 17.4623 43.772 17.8672Z" fill="#C66035"/>
<path d="M44.3797 15.9209C44.3782 16.2361 44.4354 16.5484 44.5478 16.8399C44.6602 17.1313 44.8256 17.3961 45.0345 17.619C45.2434 17.8418 45.4917 18.0183 45.7649 18.1382C46.0382 18.2581 46.331 18.319 46.6264 18.3175C46.9224 18.319 47.2157 18.2581 47.4895 18.1384C47.7634 18.0186 48.0123 17.8423 48.2221 17.6196C48.4319 17.397 48.5984 17.1323 48.712 16.8407C48.8255 16.5492 48.884 16.2366 48.884 15.9209C48.8811 15.2843 48.642 14.6747 48.2189 14.2256C47.7959 13.7765 47.2233 13.5244 46.6264 13.5244C46.0305 13.5244 45.4591 13.7769 45.0377 14.2263C44.6164 14.6758 44.3797 15.2853 44.3797 15.9209Z" fill="#C66035"/>
<path d="M61.1616 29.9898C61.1602 30.3415 61.2241 30.6899 61.3496 31.0151C61.4751 31.3403 61.6597 31.6357 61.8928 31.8843C62.1259 32.133 62.4029 32.3299 62.7077 32.4638C63.0125 32.5976 63.3392 32.6658 63.6689 32.6642C63.999 32.6658 64.3262 32.5977 64.6317 32.464C64.9371 32.3303 65.2148 32.1335 65.4488 31.885C65.6828 31.6365 65.8684 31.3412 65.9951 31.016C66.1218 30.6907 66.187 30.342 66.187 29.9898C66.187 29.6377 66.1218 29.2889 65.9951 28.9637C65.8684 28.6385 65.6828 28.3432 65.4488 28.0947C65.2148 27.8462 64.9371 27.6494 64.6317 27.5157C64.3262 27.382 63.999 27.3139 63.6689 27.3155C63.3392 27.3139 63.0125 27.3821 62.7077 27.5159C62.4029 27.6498 62.1259 27.8467 61.8928 28.0953C61.6597 28.344 61.4751 28.6394 61.3496 28.9646C61.2241 29.2898 61.1602 29.6382 61.1616 29.9898Z" fill="#C66035"/>
<path d="M58.3066 18.134C58.3095 19.4462 58.8002 20.7036 59.6711 21.6303C60.542 22.5571 61.7219 23.0776 62.9521 23.0776C63.5621 23.0791 64.1665 22.9524 64.7306 22.7048C65.2948 22.4572 65.8077 22.0935 66.2401 21.6344C66.6725 21.1754 67.0158 20.63 67.2506 20.0294C67.4854 19.4288 67.6069 18.7847 67.6084 18.134C67.6069 17.4833 67.4854 16.8392 67.2506 16.2386C67.0158 15.638 66.6725 15.0926 66.2401 14.6336C65.8077 14.1745 65.2948 13.8108 64.7306 13.5632C64.1665 13.3156 63.5621 13.1889 62.9521 13.1904C61.7219 13.1904 60.542 13.7109 59.6711 14.6377C58.8002 15.5644 58.3095 16.8218 58.3066 18.134Z" fill="#C66035"/>
<path d="M55.3005 12.136C55.302 12.7867 55.4235 13.4307 55.6583 14.0313C55.8931 14.6319 56.2364 15.1773 56.6688 15.6364C57.1012 16.0954 57.6141 16.4592 58.1783 16.7068C58.7424 16.9544 59.3468 17.081 59.9568 17.0795C61.187 17.0795 62.3669 16.5591 63.2378 15.6323C64.1087 14.7055 64.5994 13.4481 64.6023 12.136C64.5994 10.8238 64.1087 9.56639 63.2378 8.63963C62.3669 7.71286 61.187 7.19239 59.9568 7.1924C59.3468 7.19087 58.7424 7.31754 58.1783 7.56515C57.6141 7.81276 57.1012 8.17648 56.6688 8.63553C56.2364 9.09459 55.8931 9.63998 55.6583 10.2406C55.4235 10.8412 55.302 11.4852 55.3005 12.136Z" fill="#C66035"/>
<path d="M54.6162 29.7572C54.6191 30.618 54.9417 31.4425 55.5133 32.0501C56.085 32.6577 56.8591 32.9988 57.6661 32.9988C58.4732 32.9988 59.2473 32.6577 59.8189 32.0501C60.3906 31.4425 60.7132 30.618 60.7161 29.7572C60.7161 29.3299 60.6372 28.9069 60.4839 28.5122C60.3306 28.1175 60.106 27.7589 59.8228 27.4568C59.5395 27.1547 59.2033 26.915 58.8333 26.7515C58.4633 26.5881 58.0667 26.5039 57.6661 26.5039C56.8572 26.5039 56.0815 26.8467 55.5095 27.4568C54.9375 28.0669 54.6162 28.8943 54.6162 29.7572Z" fill="#C66035"/>
<path d="M44.1311 26.7129C44.1311 27.1396 44.2101 27.5621 44.3635 27.9561C44.5169 28.3502 44.7417 28.708 45.0251 29.0092C45.3084 29.3104 45.6447 29.5489 46.0147 29.7111C46.3847 29.8734 46.781 29.9561 47.181 29.9546C47.581 29.9561 47.9774 29.8734 48.3474 29.7111C48.7173 29.5489 49.0536 29.3104 49.337 29.0092C49.6204 28.708 49.8452 28.3502 49.9986 27.9561C50.152 27.5621 50.231 27.1396 50.231 26.7129C50.2224 25.8592 49.8984 25.0435 49.3294 24.4431C48.7604 23.8427 47.9923 23.5059 47.1919 23.5059C46.3877 23.4998 45.6141 23.8338 45.0404 24.4349C44.4667 25.036 44.1397 25.8552 44.1311 26.7129Z" fill="#C66035"/>
<path d="M59.8372 25.7288C59.8372 26.1555 59.9161 26.578 60.0695 26.9721C60.2229 27.3661 60.4478 27.724 60.7311 28.0252C61.0145 28.3263 61.3508 28.5649 61.7208 28.7271C62.0907 28.8893 62.4871 28.9721 62.8871 28.9705C63.2871 28.9721 63.6835 28.8893 64.0534 28.7271C64.4234 28.5649 64.7597 28.3263 65.0431 28.0252C65.3264 27.724 65.5512 27.3661 65.7046 26.9721C65.8581 26.578 65.937 26.1555 65.937 25.7288C65.937 24.866 65.6157 24.0385 65.0437 23.4284C64.4717 22.8183 63.696 22.4756 62.8871 22.4756C62.0782 22.4756 61.3024 22.8183 60.7305 23.4284C60.1585 24.0385 59.8372 24.866 59.8372 25.7288Z" fill="#C66035"/>
<path d="M61.0095 22.6722C61.0109 23.0994 61.0912 23.5222 61.2458 23.9163C61.4004 24.3104 61.6263 24.6682 61.9105 24.9692C62.1947 25.2702 62.5317 25.5086 62.9023 25.6707C63.2729 25.8328 63.6698 25.9154 64.0703 25.9139C64.8773 25.9139 65.6514 25.5727 66.2231 24.9651C66.7948 24.3575 67.1174 23.533 67.1202 22.6722C67.1202 22.245 67.0413 21.822 66.8881 21.4273C66.7348 21.0325 66.5101 20.6739 66.2269 20.3718C65.9437 20.0697 65.6075 19.8301 65.2375 19.6666C64.8674 19.5031 64.4708 19.419 64.0703 19.419C63.6689 19.4174 63.2711 19.5005 62.8998 19.6633C62.5285 19.8261 62.191 20.0655 61.9067 20.3677C61.6223 20.67 61.3967 21.0291 61.2427 21.4246C61.0888 21.82 61.0095 22.244 61.0095 22.6722Z" fill="#C66035"/>
<path d="M50.4259 11.1168L49.232 13.5133C48.761 14.5995 48.6501 15.8242 48.9172 16.9865L49.3731 18.5727C48.9934 18.4938 48.6274 18.3533 48.2877 18.1559C47.3853 17.6446 46.7103 16.7719 46.4111 15.7297C46.1119 14.6876 46.213 13.5613 46.6922 12.5987C47.0647 11.8534 47.6446 11.2495 48.3521 10.8701C49.0596 10.4907 49.8599 10.3544 50.643 10.48C50.6217 10.7032 50.559 10.9197 50.4585 11.1168" fill="#C66035"/>
<path d="M55.8977 30.9975L58.2421 30.8354C59.2886 30.828 60.3064 31.1994 61.1293 31.8889L62.2147 32.9077C62.3033 32.5295 62.3399 32.1395 62.3232 31.75C62.2968 31.2475 62.178 30.7555 61.9733 30.302C61.7687 29.8485 61.4823 29.4425 61.1306 29.107C60.7788 28.7716 60.3686 28.5134 59.9233 28.3471C59.478 28.1808 59.0063 28.1097 58.5352 28.1378C57.7908 28.183 57.0778 28.4734 56.4946 28.969C55.9114 29.4646 55.4867 30.141 55.2791 30.9048C55.4646 30.9686 55.6601 30.9922 55.8543 30.9743" fill="#C66035"/>
<path d="M58.1009 13.3643L59.4576 19.292C59.9357 21.9339 59.5527 24.6709 58.3722 27.0488L56.5054 30.2326C57.4049 30.3044 58.3093 30.2263 59.1863 30.0011C61.4106 29.4192 63.3294 27.9235 64.5247 25.8396C65.7201 23.7558 66.0952 21.2526 65.5683 18.8752C65.1323 17.033 64.1757 15.3784 62.8283 14.1358C61.4808 12.8932 59.8077 12.1227 58.0358 11.9287C57.9764 12.4307 57.9984 12.9398 58.1009 13.4338" fill="#C66035"/>
<path d="M64.0812 13.606L63.2997 12.182C62.9941 11.5305 62.9024 10.7886 63.0392 10.0749L63.2888 9.09082C63.0498 9.14881 62.8196 9.24234 62.605 9.36868C62.0668 9.70041 61.6742 10.2465 61.5134 10.887C61.3526 11.5274 61.4368 12.2098 61.7476 12.784C61.9893 13.2342 62.3563 13.5931 62.7978 13.8109C63.2392 14.0287 63.7332 14.0947 64.2114 13.9997L64.0812 13.606Z" fill="#C66035"/>
<path d="M54.0844 26.9792C53.5137 26.9409 52.9519 27.1444 52.5211 27.5455C52.0902 27.9465 51.8252 28.5127 51.7834 29.121L51.3384 36.8431C51.3038 37.4572 51.4994 38.0608 51.8821 38.5211C52.2648 38.9814 52.8032 39.2607 53.3789 39.2975C53.9546 39.3344 54.5205 39.1258 54.952 38.7176C55.3835 38.3094 55.6454 37.7351 55.6799 37.121L56.1249 29.3988C56.1516 28.7903 55.9524 28.195 55.5704 27.7421C55.1885 27.2892 54.6546 27.0151 54.0844 26.9792Z" fill="#FACBB7"/>
<path d="M54.0845 26.9792C53.5139 26.9409 52.9521 27.1444 52.5212 27.5455C52.0904 27.9465 51.8253 28.5127 51.7835 29.121L51.3385 36.8431C51.3054 37.4211 51.4765 37.9913 51.818 38.4413C52.1596 38.8914 52.6468 39.1886 53.1837 39.2744L53.3248 36.9589C53.34 36.6536 53.4117 36.3546 53.5359 36.0791C53.66 35.8035 53.834 35.5569 54.0479 35.3535C54.2619 35.1501 54.5114 34.9939 54.7822 34.8938C55.053 34.7938 55.3397 34.752 55.6258 34.7708H55.8103L56.1251 29.3757C56.1459 28.7711 55.9441 28.1817 55.5627 27.7338C55.1814 27.2859 54.6508 27.0151 54.0845 26.9792Z" fill="#F7B69D"/>
<path d="M60.5192 14.613L47.6791 12.8301C46.9939 13.9527 46.5595 15.2281 46.4092 16.558L45.4541 24.3612C45.0308 31.1687 51.5539 31.6781 51.5539 31.6781H51.7167C53.7026 31.9447 55.7069 31.3647 57.2941 30.064C58.8814 28.7633 59.9233 26.8471 60.1936 24.7317L60.9533 18.503C61.1258 17.1767 60.9763 15.8254 60.5192 14.5783" fill="#FBD1BE"/>
<path d="M60.5094 14.6124L58.6425 14.3462C58.8859 15.3315 58.9449 16.3582 58.8162 17.3679L58.0564 23.5965C57.5137 28.0075 54.6375 31.2376 50.4587 30.6588H50.2959L48.8741 30.4504L49.4493 24.9858C49.0321 24.8579 48.6639 24.5913 48.3985 24.2248C48.133 23.8584 47.984 23.4112 47.9732 22.9482C49.1888 22.1609 49.6121 21.4779 49.8726 19.475C50.0897 17.9236 50.6324 13.281 50.6324 13.281L47.6802 12.8643C46.9996 13.9766 46.5654 15.2396 46.4103 16.5575L45.4551 24.3606C44.5 32.0133 51.555 31.6776 51.555 31.6776H51.7178C53.7037 31.9442 55.708 31.3641 57.2952 30.0634C58.8824 28.7628 59.9244 26.8465 60.1946 24.7311L60.9544 18.5025C61.1234 17.1752 60.9702 15.8238 60.5094 14.5777" fill="#F6AF93"/>
<path d="M61.3021 22.1286C61.5792 22.1641 61.8468 22.2584 62.0893 22.4058C62.3318 22.5532 62.5442 22.7508 62.714 22.987C62.8839 23.2232 63.0078 23.4932 63.0785 23.7812C63.1491 24.0692 63.1651 24.3693 63.1256 24.664C63.0895 24.9568 62.9996 25.2391 62.8611 25.4948C62.7226 25.7505 62.5382 25.9746 62.3184 26.1541C62.0986 26.3337 61.8478 26.4653 61.5803 26.5414C61.3128 26.6175 61.0338 26.6365 60.7594 26.5975L57.3513 26.1344L58.0243 21.7002L61.3021 22.1286Z" fill="#F9C0A8"/>
<path d="M51.9561 22.1394H52.1515C52.2745 22.0468 52.4143 21.9825 52.5619 21.9506C52.7095 21.9187 52.8617 21.9199 53.0089 21.9542C53.1546 21.9825 53.2933 22.0423 53.4165 22.1299C53.5396 22.2175 53.6447 22.3311 53.7252 22.4636L54.0292 22.5331L54.0834 22.2089C53.9705 22.0252 53.8238 21.8678 53.6522 21.7464C53.4805 21.625 53.2875 21.5421 53.0849 21.5027C52.8841 21.4586 52.6772 21.4575 52.476 21.4992C52.2748 21.5409 52.0833 21.6247 51.9127 21.7458L51.8584 22.07L51.9561 22.1394Z" fill="#3B2314"/>
<path d="M46.5507 21.0739H46.746C46.867 20.9779 47.0054 20.9098 47.1525 20.8739C47.2995 20.8381 47.4519 20.8354 47.6 20.8659C47.748 20.8964 47.8885 20.9594 48.0125 21.0511C48.1364 21.1427 48.2411 21.2609 48.3198 21.3981L48.6238 21.4676L48.678 21.1434C48.4463 20.7769 48.0883 20.5226 47.6819 20.4359C47.2754 20.3492 46.8534 20.437 46.5073 20.6803L46.4421 21.0045L46.5507 21.0739Z" fill="#3B2314"/>
<path d="M59.8915 23.124L61.0637 23.2745C61.3199 23.3121 61.5529 23.4532 61.7144 23.6686C61.876 23.884 61.9539 24.1574 61.932 24.4323C61.9005 24.6881 61.783 24.923 61.6013 25.0933C61.4196 25.2636 61.1862 25.3579 60.9443 25.3585H60.8032L59.6418 25.1964L59.8915 23.124Z" fill="#F6B09A"/>
<path d="M62.5816 16.037C62.6231 14.4549 62.1118 12.9128 61.147 11.7103C60.1822 10.5079 58.8327 9.73092 57.3609 9.53047C57.3609 9.53047 47.8095 6.90239 46.7024 14.4972L55.2335 15.6549C55.7001 15.7305 56.1271 15.978 56.4404 16.3544C56.7537 16.7309 56.9335 17.2126 56.9484 17.7157L56.6228 20.3322C57.0894 20.3984 57.5199 20.6355 57.8407 21.003C58.1615 21.3705 58.3525 21.8455 58.3811 22.3467L58.24 23.3423C58.2187 23.5165 58.23 23.6935 58.2731 23.863C58.3162 24.0325 58.3904 24.1913 58.4913 24.3301C58.5921 24.4689 58.7178 24.5851 58.8609 24.6719C59.0041 24.7587 59.162 24.8144 59.3254 24.8358C59.575 22.3698 60.6062 22.2193 61.7567 22.2077L62.5816 16.037Z" fill="#C66035"/>
<path d="M62.0953 12.8189L59.9245 16.2111C59.7435 16.4903 59.6161 16.805 59.5498 17.1371C59.4834 17.4691 59.4794 17.8118 59.5379 18.1455C59.5965 18.4792 59.7164 18.7973 59.8908 19.0812C60.0652 19.3652 60.2906 19.6095 60.554 19.8001C60.8167 19.9935 61.1126 20.1295 61.4247 20.2005C61.7368 20.2714 62.059 20.2758 62.3728 20.2134C62.6865 20.151 62.9855 20.023 63.2527 19.8368C63.5199 19.6506 63.7499 19.4099 63.9296 19.1286L64.5048 18.2371L66.9252 14.5439C67.4771 13.8143 68.2407 13.3011 69.096 13.0852L69.7472 12.9462L68.1191 11.7885C67.1426 11.2326 66.0187 11.0445 64.9294 11.2546C63.8401 11.4647 62.8492 12.0607 62.117 12.9462" fill="#C66035"/>
<path d="M54.5412 11.3713L56.8422 14.6824C57.2288 15.2303 57.8023 15.5934 58.4383 15.6931C59.0743 15.7928 59.7215 15.621 60.2395 15.215C60.4958 15.0138 60.7122 14.7604 60.8762 14.4694C61.0402 14.1785 61.1486 13.8558 61.195 13.5199C61.2414 13.1841 61.225 12.8417 61.1467 12.5127C61.0684 12.1837 60.9297 11.8744 60.7388 11.6028L60.131 10.7693L57.6563 7.20343C57.157 6.40587 56.9308 5.44904 57.0159 4.49431L57.1136 3.78809L55.4964 4.98056C54.6807 5.77447 54.1421 6.84029 53.9685 8.00344C53.795 9.1666 53.9969 10.3581 54.5412 11.3829" fill="#C66035"/>
<path d="M54.2153 12.3796L57.1024 13.2826C58.354 13.7525 59.4182 14.6631 60.1198 15.8644L60.999 17.5894C61.2639 17.1687 61.4687 16.7083 61.6068 16.2233C61.9426 14.9889 61.8055 13.6629 61.2255 12.5363C60.6455 11.4097 59.6701 10.5747 58.5134 10.2146C57.6129 9.93475 56.6533 9.95801 55.7657 10.2812C54.878 10.6045 54.1054 11.2119 53.5532 12.0207C53.7511 12.1832 53.9756 12.3049 54.2153 12.3796Z" fill="#C66035"/>
<path d="M61.3015 15.9675L56.5041 15.4002C54.4058 15.0132 52.4927 13.8786 51.0772 12.1817C51.0772 12.1817 48.7328 11.2092 48.6459 12.0312C48.534 13.0454 48.6106 14.0732 48.8713 15.0558C49.1321 16.0385 49.572 16.9566 50.1658 17.7577C50.7595 18.5588 51.4956 19.2272 52.3317 19.7245C53.1679 20.2219 54.0878 20.5386 55.0388 20.6564C56.5349 20.8438 58.0488 20.5341 59.3736 19.7695C60.6985 19.0049 61.7698 17.8227 62.4412 16.3843C62.0879 16.1797 61.7009 16.05 61.3015 16.0022" fill="#C66035"/>
<path d="M56.0695 10.3984H53.1498C52.6623 10.3984 52.1947 10.6042 51.8489 10.9708C51.5032 11.3374 51.3076 11.835 51.3047 12.355C51.3047 12.877 51.4991 13.3776 51.8451 13.7467C52.1912 14.1158 52.6605 14.3232 53.1498 14.3232H57.1549C57.8361 14.3574 58.4848 14.644 58.9892 15.1336L59.3582 15.5157V13.918C59.2631 13.0318 58.8895 12.2061 58.2982 11.5754C57.7069 10.9447 56.9328 10.5462 56.1021 10.4447" fill="#C66035"/>
<path d="M59.1646 26.4594C59.1494 26.5705 59.155 26.6838 59.1812 26.7926C59.2075 26.9013 59.2538 27.0034 59.3175 27.0929C59.3811 27.1824 59.4609 27.2574 59.552 27.3136C59.6432 27.3698 59.744 27.4061 59.8484 27.4203C60.0579 27.447 60.2689 27.3858 60.437 27.2497C60.6051 27.1137 60.717 26.9133 60.7493 26.6909C60.763 26.5807 60.7562 26.4686 60.7292 26.3612C60.7023 26.2537 60.6557 26.153 60.5922 26.0648C60.5286 25.9766 60.4494 25.9027 60.359 25.8472C60.2687 25.7917 60.1689 25.7558 60.0655 25.7416C59.9621 25.7252 59.8567 25.7308 59.7554 25.7581C59.654 25.7854 59.5587 25.8338 59.475 25.9005C59.3913 25.9672 59.3207 26.0509 59.2675 26.1469C59.2142 26.2428 59.1792 26.349 59.1646 26.4594Z" fill="#F7E9E9"/>
<path d="M52.9551 26.8632C52.7581 27.5396 52.3421 28.1194 51.7815 28.499C51.2209 28.8786 50.552 29.0333 49.8943 28.9355C49.2366 28.8373 48.6328 28.494 48.1897 27.9664C47.7467 27.4387 47.4931 26.7608 47.4739 26.0527L52.9551 26.8632Z" fill="#F5F4F4"/>
<path d="M59.3272 18.3993C59.2601 18.5772 59.2265 18.7674 59.2283 18.9592C59.2302 19.1509 59.2675 19.3403 59.3381 19.5167C59.4086 19.693 59.5111 19.8528 59.6396 19.9869C59.7681 20.1209 59.9201 20.2267 60.087 20.298C60.4253 20.443 60.8037 20.4392 61.1393 20.2873C61.4749 20.1354 61.7405 19.8479 61.8778 19.4876L64.168 13.4558C64.235 13.2764 64.2682 13.0846 64.2658 12.8915C64.2633 12.6984 64.2252 12.5078 64.1537 12.3304C64.0821 12.153 63.9785 11.9924 63.8487 11.8577C63.719 11.723 63.5656 11.6169 63.3974 11.5455C63.0591 11.4005 62.6807 11.4043 62.345 11.5562C62.0094 11.7081 61.7438 11.9957 61.6065 12.3559L59.3272 18.3993Z" fill="#F7E9E9"/>
<path d="M58.5672 14.938C58.3904 14.9623 58.2199 15.0235 58.0653 15.1181C57.9107 15.2127 57.7751 15.3389 57.6663 15.4894C57.5574 15.6399 57.4774 15.8118 57.4309 15.9953C57.3843 16.1788 57.3721 16.3703 57.395 16.5588C57.4486 16.944 57.6433 17.2907 57.9363 17.523C58.2293 17.7552 58.5967 17.854 58.9579 17.7976L65.0144 16.883C65.1927 16.8561 65.3643 16.7918 65.5193 16.6939C65.6743 16.596 65.8096 16.4665 65.9175 16.3126C66.0255 16.1588 66.1038 15.9837 66.1481 15.7975C66.1924 15.6113 66.2018 15.4175 66.1757 15.2274C66.1219 14.8438 65.9292 14.498 65.639 14.2642C65.3488 14.0304 64.9843 13.9273 64.6236 13.9771L58.5672 14.938Z" fill="#F7E9E9"/>
<path d="M60.9874 12.4609C60.7625 12.1543 60.4329 11.9553 60.0707 11.9076C59.7086 11.8598 59.3434 11.9672 59.0554 12.2062C58.7742 12.4455 58.5919 12.7925 58.5473 13.1732C58.5027 13.5539 58.5993 13.9381 58.8166 14.2438L62.5829 19.3842C62.8077 19.6908 63.1374 19.8898 63.4995 19.9375C63.8617 19.9853 64.2268 19.8779 64.5149 19.6389C64.6584 19.5211 64.7785 19.3741 64.8684 19.2063C64.9582 19.0386 65.0159 18.8535 65.0381 18.6618C65.0603 18.47 65.0466 18.2755 64.9978 18.0895C64.9489 17.9035 64.866 17.7297 64.7536 17.5781L60.9874 12.4609Z" fill="#F7E9E9"/>
<path d="M59.9463 15.1342C60.1459 14.6162 60.5298 14.2037 61.0139 13.9867C61.4979 13.7697 62.0429 13.7661 62.5295 13.9765C63.0143 14.1871 63.401 14.5944 63.6045 15.1088C63.808 15.6233 63.8117 16.2029 63.6149 16.7203C63.5171 16.9778 63.3727 17.2121 63.1897 17.4098C63.0068 17.6075 62.7891 17.7647 62.549 17.8723C62.3089 17.9799 62.0513 18.0358 61.7909 18.0368C61.5305 18.0378 61.2724 17.9838 61.0316 17.8781C60.5468 17.6675 60.1602 17.2602 59.9566 16.7457C59.7531 16.2312 59.7494 15.6516 59.9463 15.1342Z" fill="#F3977F"/>
<path d="M91.4786 137.296L97.3183 136.543L94.2791 109.913C93.8883 106.521 93.465 100.963 93.3239 97.5479L92.3253 73.1064L86.4639 73.3496L87.4625 97.791C87.6036 101.345 88.0486 107.111 88.4502 110.643L91.4786 137.296Z" fill="#226A94"/>
<path d="M76.8031 48.1569L89.3726 36.0462C89.6481 35.9311 89.8995 35.7592 90.1126 35.5403C90.3256 35.3213 90.496 35.0596 90.614 34.7703C90.732 34.4809 90.7953 34.1695 90.8002 33.854C90.8051 33.5385 90.7515 33.225 90.6426 32.9316C90.4185 32.3444 89.9854 31.8758 89.4382 31.6285C88.8909 31.3811 88.2741 31.3751 87.7227 31.6117L75.1532 43.6877C73.1668 45.3086 71.4735 48.18 69.8019 46.4433L60.9772 37.1808C59.5444 37.8987 57.7209 39.4964 58.6652 40.3879L67.9132 49.9862C69.943 52.105 71.7883 53.2397 76.8031 48.1221" fill="#A8661F"/>
<path d="M66.0029 39.2974C66.7141 40.1846 67.0775 41.3299 67.0175 42.4954C66.9576 43.6609 66.479 44.7569 65.6812 45.5558C64.8833 46.3547 63.8276 46.7949 62.7333 46.7851C61.6391 46.7752 60.5904 46.3161 59.8053 45.5029L58.7091 44.3452C57.9347 43.4686 57.5186 42.2997 57.5522 41.0958C57.5688 40.4997 57.6954 39.9129 57.9246 39.3689C58.1538 38.825 58.4813 38.3345 58.8882 37.9255C59.2951 37.5165 59.7736 37.1971 60.2963 36.9853C60.819 36.7736 61.3756 36.6737 61.9345 36.6915C63.0632 36.7273 64.1323 37.2399 64.9066 38.1165L66.0029 39.2974Z" fill="#65B4E5"/>
<path d="M63.7891 47.8202C63.9717 48.0111 64.2172 48.1181 64.4728 48.1181C64.7285 48.1181 64.974 48.0111 65.1566 47.8202L68.1089 44.7869C68.2931 44.6012 68.4006 44.3449 68.4078 44.0746C68.4149 43.8043 68.321 43.5421 68.1469 43.3456C67.9727 43.149 67.7325 43.0344 67.4791 43.0268C67.2257 43.0192 66.9798 43.1193 66.7956 43.305L63.8325 46.3267C63.6542 46.5195 63.5542 46.7795 63.5542 47.0503C63.5542 47.3212 63.6542 47.5811 63.8325 47.7739" fill="#5291CE"/>
<path d="M58.3509 68.3713C61.6404 68.4563 64.8693 67.4178 67.5664 65.4073C74.0248 60.475 76.923 50.1358 76.4128 33.6253L71.3655 32.7686C71.7888 46.4539 68.4347 56.5616 63.9301 60.0003C60.8257 62.316 56.332 62.316 50.2969 59.9077L48.126 66.1252C51.3896 67.5145 54.8596 68.2712 58.3726 68.3597" fill="#E6C907"/>
<path d="M51.7297 140.328L48.4736 134.933C48.0936 134.287 47.9699 133.506 48.1297 132.762C48.2895 132.019 48.7197 131.373 49.3256 130.968C49.9316 130.563 50.6636 130.431 51.3608 130.601C52.0579 130.771 52.6631 131.23 53.043 131.877L59.4794 142.644C58.1473 143.345 56.6193 143.496 55.1889 143.069C53.7585 142.642 52.5265 141.665 51.7297 140.328Z" fill="#010101"/>
<path d="M52.3159 136.346L50.5467 133.429C50.362 133.079 50.3102 132.667 50.4021 132.279C50.494 131.89 50.7226 131.553 51.0405 131.339C51.3584 131.125 51.7413 131.049 52.1101 131.128C52.4788 131.207 52.8051 131.433 53.0214 131.761L56.5055 137.55C55.7855 137.929 54.9595 138.012 54.1862 137.781C53.4129 137.55 52.7468 137.023 52.3159 136.3" fill="#F7B69D"/>
<path d="M48.7982 139.066L46.8879 138.036L48.2664 132.514L50.7411 135.211L48.7982 139.066Z" fill="#010101"/>
<path d="M51.9026 144L45.9004 143.606C45.5441 143.58 45.196 143.48 44.8761 143.31C44.5562 143.141 44.2706 142.906 44.0358 142.619C43.8009 142.332 43.6214 141.998 43.5074 141.637C43.3935 141.276 43.3473 140.895 43.3715 140.515C43.3957 140.135 43.4899 139.763 43.6487 139.422C43.8074 139.081 44.0276 138.776 44.2967 138.526C44.5658 138.275 44.8785 138.084 45.217 137.962C45.5555 137.841 45.9131 137.791 46.2695 137.817L58.2087 138.651C57.9543 140.214 57.1651 141.62 55.994 142.597C54.8229 143.575 53.3533 144.054 51.8701 143.942" fill="#3B2314"/>
<path d="M49.2331 141.139L45.9769 140.931C45.7862 140.919 45.5997 140.867 45.428 140.778C45.2563 140.689 45.1029 140.564 44.9767 140.411C44.8505 140.258 44.754 140.08 44.6928 139.887C44.6316 139.694 44.6069 139.49 44.6202 139.287C44.6326 139.083 44.6826 138.884 44.7674 138.7C44.8522 138.517 44.9701 138.354 45.1143 138.219C45.2586 138.085 45.4263 137.982 45.6078 137.917C45.7894 137.852 45.9812 137.826 46.1723 137.84L52.6846 138.291C52.5418 139.137 52.1098 139.897 51.4723 140.423C50.8347 140.949 50.0368 141.204 49.2331 141.139Z" fill="#F5A486"/>
<path d="M54.4651 134.817L60.7933 118.006C63.8868 109.797 64.3644 96.2738 61.8787 87.8449L57.3198 72.5039L53.1843 73.8817L57.7431 89.2227C59.914 96.6559 59.5124 109.056 56.788 116.304L50.8071 132.178L54.4651 134.817Z" fill="#F7B69D"/>
<path d="M59.285 64.9899L62.4219 47.2175L61.2388 37.214L52.1644 33.9258L43.0466 37.3413L48.17 63.4847L58.9051 70.3506L59.285 64.9899Z" fill="#65B4E5"/>
<path d="M45.792 139.056L45.423 116.339C45.1812 107.117 44.358 97.9226 42.959 88.8182L40.7881 76.1401L45.0322 75.2949L47.2031 88.0309C48.6381 97.365 49.4831 106.792 49.7322 116.247L50.1447 138.245L45.792 139.056Z" fill="#F5A486"/>
<path d="M53.541 62.0027C59.0439 63.1604 61.041 67.1083 59.9773 72.9665L58.6423 80.5381L40.6357 78.0837L41.8622 69.3544C42.9476 63.4962 48.0272 60.8797 53.541 62.0027Z" fill="#65B4E5"/>
<path d="M50.8607 57.4184C50.9689 57.419 51.0759 57.4426 51.1754 57.4878C51.3835 57.5736 51.552 57.7425 51.6452 57.9587C51.7384 58.1749 51.749 58.4213 51.6747 58.6456L50.5785 61.7136C49.9213 61.7424 49.2676 61.8315 48.6248 61.9799L50.0466 57.9741C50.1111 57.799 50.2229 57.6483 50.3679 57.5411C50.5128 57.4339 50.6843 57.3751 50.8607 57.3721" fill="#4699C8"/>
<path d="M50.5787 61.7139L48.3537 68.0352C48.2887 68.209 48.1765 68.3581 48.0314 68.4633C47.8863 68.5685 47.7151 68.625 47.5396 68.6256C47.4357 68.6477 47.3288 68.6477 47.2249 68.6256C47.0186 68.5374 46.8518 68.3683 46.7589 68.1529C46.666 67.9375 46.6541 67.6923 46.7256 67.4679L48.625 62.1191C49.2627 61.918 49.9169 61.7823 50.5787 61.7139Z" fill="#4699C8"/>
<path d="M52.315 61.2035C52.4199 61.2031 52.5235 61.2268 52.6189 61.273C52.7551 61.3237 52.8766 61.4111 52.9717 61.5268C53.0668 61.6424 53.1322 61.7823 53.1616 61.9329C52.6198 61.8257 52.0726 61.7523 51.5227 61.7129C51.5889 61.5475 51.6994 61.4065 51.8403 61.3076C51.9812 61.2088 52.1464 61.1565 52.315 61.1572" fill="#4699C8"/>
<path d="M51.5231 61.7139C52.0721 61.7379 52.6194 61.7959 53.1621 61.8875C53.2159 62.0604 53.2159 62.2472 53.1621 62.4201L51.2301 67.8268C51.1681 68.0037 51.0569 68.1561 50.9114 68.2637C50.766 68.3713 50.5931 68.4289 50.4161 68.4288C50.3114 68.4279 50.208 68.4043 50.1121 68.3593C49.9038 68.2734 49.7346 68.1051 49.6396 67.8895C49.5446 67.6739 49.5311 67.4275 49.602 67.2016L51.5014 61.8412" fill="#4699C8"/>
<path d="M59.3372 65.569L47.4631 62.3157L47.7128 61.2969L59.5869 64.5501L59.3372 65.569Z" fill="#5B331C"/>
<path d="M43.9472 64.8164C39.8876 70.0729 38.9541 78.5596 33.0059 82.5541C33.592 89.1883 39.7899 91.8166 47.3881 91.8166C53.3366 91.799 59.0936 89.572 63.6698 85.5181C62.5844 83.2025 58.959 79.127 60.001 73.0021C52.5657 72.2264 48.2347 74.0442 43.9689 64.8975" fill="#65B4E5"/>
<path d="M39.3004 83.1914C39.7138 83.1908 40.1232 83.2774 40.5052 83.4461L41.1781 83.724C41.9764 84.0556 42.6201 84.7094 42.9695 85.5438C43.319 86.3781 43.3461 87.3258 43.045 88.1813L41.9596 91.203C39.5387 90.7937 37.2787 89.6526 35.4473 87.915L36.4024 85.3564C36.645 84.7199 37.0591 84.1745 37.5923 83.7892C38.1256 83.4038 38.754 83.1958 39.3981 83.1914" fill="#4699C8"/>
<path d="M53.8994 81.0156C54.5974 81.0191 55.2759 81.2618 55.8349 81.7079C56.3938 82.154 56.8035 82.7799 57.0036 83.4932L58.4037 89.0967C56.2123 90.1162 53.9281 90.8921 51.5875 91.4122L50.068 85.6234C49.8503 84.7456 49.9636 83.8117 50.3835 83.0219C50.8035 82.232 51.4967 81.649 52.3147 81.3977L53.0094 81.1893C53.3023 81.1007 53.6058 81.0578 53.9102 81.0619" fill="#4699C8"/>
<path d="M52.1636 33.9258L58.5782 36.2413L59.3814 40.6638C59.6014 42.0214 59.314 43.4168 58.5809 44.5511C57.8478 45.6853 56.7273 46.4681 55.4595 46.7315C54.1918 46.995 52.8777 46.7183 51.799 45.9606C50.7203 45.2029 49.9628 44.0246 49.6889 42.6783L48.343 35.3498L52.1636 33.9258Z" fill="#FACBB7"/>
<path d="M48.343 35.3625L48.7555 37.5854L52.7497 37.7359L51.8922 34.0195L48.343 35.3625Z" fill="#F7B69D"/>
<path d="M93.204 141.533C93.356 142.69 97.4913 142.158 97.3285 140.942L96.8835 137.376C96.8101 136.791 96.5218 136.261 96.0822 135.903C95.6425 135.545 95.0874 135.388 94.5391 135.466C93.9907 135.544 93.4939 135.852 93.1581 136.321C92.8222 136.79 92.6748 137.382 92.7482 137.967L93.204 141.533Z" fill="#A8661F"/>
<path d="M97.1443 139.287H96.5582V140.549C96.5582 140.856 96.4438 141.151 96.2403 141.368C96.0367 141.585 95.7607 141.707 95.4728 141.707H95.3426C95.0547 141.707 94.7786 141.585 94.5751 141.368C94.3715 141.151 94.2572 140.856 94.2572 140.549V139.287H91.6848C91.4678 141.406 90.1979 141.116 89.7637 141.116H85.0857V143.64H99.0871V141.325C99.0814 140.78 98.8738 140.26 98.5098 139.878C98.1458 139.497 97.6548 139.284 97.1443 139.287Z" fill="#17142B"/>
<path d="M75.0557 141.036C75.0557 142.263 79.2344 142.263 79.2344 141.036V137.435C79.1963 136.872 78.9596 136.345 78.572 135.96C78.1843 135.575 77.6745 135.361 77.145 135.361C76.6155 135.361 76.1057 135.575 75.7181 135.96C75.3304 136.345 75.0938 136.872 75.0557 137.435V141.036Z" fill="#A8661F"/>
<path d="M79.5382 139.287H78.3118V140.549C78.3118 140.856 78.1974 141.151 77.9939 141.368C77.7903 141.585 77.5142 141.707 77.2264 141.707H77.0853C76.7974 141.707 76.5214 141.585 76.3178 141.368C76.1143 141.151 75.9999 140.856 75.9999 140.549V139.287H71.8429C71.7895 139.791 71.5641 140.255 71.2097 140.593C70.8553 140.93 70.3968 141.117 69.9218 141.116H63.9521V143.64H81.4702V141.325C81.4645 140.782 81.2584 140.264 80.8968 139.882C80.5351 139.501 80.0469 139.287 79.5382 139.287Z" fill="#17142B"/>
<path d="M74.3932 137.296L80.2655 137.145L79.6902 110.238C79.625 106.764 79.5491 101.126 79.5382 97.6407L79.4622 73.6855H73.5791L73.6551 97.6407C73.6551 101.114 73.7419 106.903 73.8179 110.377L74.3932 137.296Z" fill="#508EB4"/>
<path d="M83.4675 83.9437C84.9218 83.9468 86.3622 83.6433 87.7062 83.0507C89.0501 82.4582 90.2711 81.5882 91.2989 80.4908C92.3267 79.3934 93.1411 78.0902 93.6953 76.6561C94.2495 75.222 94.5325 73.6852 94.5282 72.134V69.8184H72.4068V72.134C72.4025 73.6852 72.6856 75.222 73.2398 76.6561C73.794 78.0902 74.6084 79.3934 75.6362 80.4908C76.664 81.5882 77.8849 82.4582 79.2289 83.0507C80.5728 83.6433 82.0133 83.9468 83.4675 83.9437Z" fill="#226A94"/>
<path d="M95.5709 32.7684C87.6333 30.6071 79.3138 30.6071 71.3762 32.7684V68.8922H95.5709V32.7684Z" fill="#E6C910"/>
<path d="M94.5282 68.8926H72.4067V72.4586H94.5282V68.8926Z" fill="#3B2314"/>
<path d="M94.8977 87.95C94.8635 88.042 94.8466 88.1403 94.848 88.2392C94.8494 88.3381 94.869 88.4358 94.9058 88.5267C94.9426 88.6175 94.9958 88.6997 95.0624 88.7686C95.129 88.8376 95.2076 88.8918 95.2938 88.9283C95.3801 88.9648 95.4722 88.9828 95.565 88.9813C95.6577 88.9798 95.7493 88.9589 95.8345 88.9196C95.9196 88.8804 95.9967 88.8236 96.0613 88.7526C96.1259 88.6816 96.1768 88.5977 96.211 88.5057L97.8608 84.0368C97.9085 83.9417 97.9368 83.837 97.9438 83.7294C97.9509 83.6218 97.9365 83.5138 97.9016 83.4126C97.8667 83.3114 97.8121 83.2192 97.7414 83.1421C97.6708 83.0649 97.5856 83.0047 97.4915 82.9652C97.3974 82.9257 97.2965 82.9079 97.1955 82.913C97.0946 82.918 96.9957 82.9458 96.9055 82.9946C96.8153 83.0433 96.7358 83.1119 96.6722 83.1957C96.6086 83.2796 96.5624 83.3768 96.5366 83.4811L94.8977 87.95Z" fill="#A8661F"/>
<path d="M96.8082 87.9158C96.7405 88.1031 96.7454 88.3114 96.8217 88.4949C96.8981 88.6783 97.0396 88.8219 97.2152 88.8941C97.3908 88.9662 97.5861 88.961 97.7581 88.8796C97.9301 88.7982 98.0647 88.6472 98.1323 88.4599L99.641 84.1994C99.6859 84.0184 99.6668 83.8261 99.5875 83.6591C99.5081 83.492 99.3741 83.3618 99.2107 83.2933C99.0473 83.2247 98.8661 83.2225 98.7013 83.2871C98.5365 83.3517 98.3997 83.4786 98.3169 83.6437L96.8082 87.9158Z" fill="#A8661F"/>
<path d="M93.4326 86.8849C93.3978 86.9768 93.3805 87.0751 93.3819 87.1742C93.3833 87.2733 93.4033 87.371 93.4408 87.4617C93.4782 87.5524 93.5323 87.6341 93.5999 87.7021C93.6675 87.77 93.7472 87.8229 93.8342 87.8574C94.0084 87.9293 94.2022 87.9245 94.3731 87.8442C94.544 87.7639 94.678 87.6146 94.7459 87.4291L96.3957 82.9602C96.4405 82.7791 96.4215 82.5868 96.3421 82.4198C96.2628 82.2527 96.1287 82.1226 95.9654 82.054C95.802 81.9855 95.6207 81.9833 95.456 82.0479C95.2912 82.1125 95.1544 82.2394 95.0715 82.4045L93.4326 86.8849Z" fill="#A8661F"/>
<path d="M94.8655 82.4275C94.7397 83.1185 94.8721 83.8347 95.2345 84.423C95.597 85.0113 96.1606 85.4252 96.8052 85.5763C97.4498 85.7274 98.1242 85.6038 98.6845 85.2318C99.2448 84.8598 99.6465 84.2689 99.804 83.5852L100.575 80.413C100.668 79.7348 100.516 79.0441 100.151 78.4803C99.7855 77.9164 99.2333 77.5212 98.6056 77.3744C97.9779 77.2276 97.3214 77.34 96.7683 77.689C96.2152 78.0381 95.8068 78.5977 95.6252 79.2553L94.8655 82.4275Z" fill="#A8661F"/>
<path d="M93.0848 82.5545C92.9959 82.6341 92.9241 82.7332 92.8741 82.8449C92.8241 82.9566 92.7971 83.0785 92.7948 83.2023C92.7926 83.326 92.8152 83.4489 92.8611 83.5626C92.9071 83.6763 92.9753 83.7782 93.0611 83.8615C93.147 83.9448 93.2486 84.0075 93.3591 84.0455C93.4696 84.0834 93.5864 84.0958 93.7017 84.0816C93.817 84.0675 93.9281 84.0272 94.0276 83.9635C94.1272 83.8998 94.2128 83.8141 94.2787 83.7122L97.1875 80.239C97.3374 80.0747 97.4212 79.8546 97.4212 79.6254C97.4212 79.3962 97.3374 79.176 97.1875 79.0117C97.0349 78.8491 96.828 78.7578 96.6123 78.7578C96.3965 78.7578 96.1896 78.8491 96.037 79.0117L93.0848 82.5545Z" fill="#A8661F"/>
<path d="M95.4185 79.5901L95.8635 77.6104L101.366 78.9765L100.921 80.9562L95.4185 79.5901Z" fill="#E8E1CA"/>
<path d="M101.03 45.7938L95.5267 32.9189L89.6436 35.7672L95.1468 48.642C97.6976 54.5932 98.5768 65.3493 97.0789 72.1109L95.7004 78.2705L101.985 79.8335L103.353 73.6855C105.165 65.5808 104.113 53.0417 101.03 45.7938Z" fill="#E6C907"/>
<path d="M81.1127 69.0439H76.9231V72.4709H81.1127V69.0439Z" fill="#9A816C"/>
<path d="M97.3249 132.106L90.7273 133.03L91.3425 138.028L97.9401 137.103L97.3249 132.106Z" fill="#607682"/>
<path d="M73.8703 132.842L73.7588 137.889L80.4212 138.056L80.5327 133.01L73.8703 132.842Z" fill="#607682"/>
<path d="M47.7888 61.714C47.9745 61.8138 48.1154 61.9882 48.1805 62.1988C48.2456 62.4094 48.2297 62.639 48.1361 62.837C48.0426 63.0351 47.8791 63.1854 47.6817 63.2548C47.4842 63.3243 47.269 63.3073 47.0833 63.2075L45.0862 62.1308C44.9005 62.031 44.7596 61.8566 44.6945 61.646C44.6294 61.4354 44.6453 61.2058 44.7389 61.0078C44.8324 60.8097 44.9959 60.6594 45.1934 60.5899C45.3908 60.5205 45.606 60.5375 45.7917 60.6373L47.7888 61.714Z" fill="#A8661F"/>
<path d="M45.7047 62.8718C45.8 62.922 45.885 62.9922 45.9543 63.0782C46.0237 63.1641 46.0762 63.2641 46.1086 63.3721C46.141 63.4801 46.1527 63.594 46.143 63.707C46.1333 63.8199 46.1023 63.9296 46.052 64.0296C46.0061 64.1324 45.941 64.2242 45.8606 64.2991C45.7802 64.3741 45.6862 64.4307 45.5845 64.4654C45.4828 64.5001 45.3755 64.5122 45.2692 64.501C45.1629 64.4897 45.06 64.4554 44.9666 64.4001L44.1309 63.8675C44.0324 63.821 43.9442 63.753 43.8718 63.6679C43.7995 63.5828 43.7447 63.4825 43.7109 63.3734C43.6772 63.2643 43.6652 63.1489 43.6759 63.0346C43.6865 62.9203 43.7195 62.8096 43.7727 62.7098C43.8188 62.607 43.8839 62.5153 43.964 62.4401C44.0442 62.3649 44.1377 62.3077 44.2391 62.2721C44.3405 62.2364 44.4475 62.2229 44.5539 62.2325C44.6603 62.242 44.7637 62.2744 44.8581 62.3277L45.7047 62.8718Z" fill="#A8661F"/>
<path d="M48.4731 60.0817C48.5715 60.1282 48.6598 60.1962 48.7321 60.2813C48.8045 60.3664 48.8593 60.4667 48.893 60.5758C48.9268 60.6849 48.9387 60.8003 48.9281 60.9146C48.9174 61.0289 48.8844 61.1396 48.8312 61.2394C48.7864 61.3433 48.722 61.4362 48.642 61.5123C48.562 61.5885 48.4682 61.6463 48.3664 61.6821C48.2646 61.718 48.157 61.7311 48.0502 61.7206C47.9435 61.7102 47.8399 61.6765 47.7459 61.6215L45.879 60.6721C45.7871 60.6235 45.705 60.556 45.6375 60.4735C45.57 60.391 45.5185 60.2952 45.4857 60.1915C45.4529 60.0877 45.4397 59.9781 45.4466 59.8689C45.4536 59.7597 45.4806 59.653 45.5262 59.5549C45.5719 59.4569 45.6351 59.3693 45.7125 59.2973C45.7898 59.2254 45.8796 59.1703 45.9769 59.1354C46.0741 59.1005 46.1769 59.0863 46.2793 59.0937C46.3817 59.1011 46.4817 59.13 46.5736 59.1786L48.4731 60.0817Z" fill="#A8661F"/>
<path d="M47.0831 76.9039C47.9297 74.6578 48.657 70.0381 49.1563 64.7932C49.6556 59.5483 49.9378 53.6666 49.9378 48.8385C50.0313 45.9065 49.8311 42.9722 49.3408 40.0855C49.1115 39.1132 48.7018 38.1999 48.136 37.3994C47.9062 37.0558 47.6058 36.7729 47.2577 36.5722C46.9097 36.3715 46.5232 36.2584 46.1279 36.2415C45.7111 36.2517 45.3008 36.3542 44.923 36.5426L44.5974 35.7553C45.0794 35.5244 45.5997 35.3985 46.1279 35.3848C46.6403 35.3959 47.1435 35.5321 47.5989 35.783C48.0542 36.0339 48.4496 36.3928 48.7547 36.832C49.4032 37.7265 49.8691 38.7559 50.1223 39.8539C50.63 42.8165 50.8374 45.8287 50.7411 48.8385C50.7411 53.7014 50.4588 59.6062 49.9595 64.8858C49.4602 70.1655 48.733 74.7967 47.7886 77.2165L47.0831 76.9039Z" fill="#052318"/>
<path d="M34.3628 74.8205C34.3628 71.0924 36.7074 66.9474 39.0194 61.1699C42.0898 53.8807 43.744 46.0035 43.8822 38.0137H44.6854C44.5539 46.1199 42.8888 54.1142 39.79 61.5173C37.4346 67.3063 35.1769 71.486 35.1877 74.8205H34.3628Z" fill="#2E2B33"/>
<path d="M43.9036 41.2668C43.2851 42.5648 42.5585 43.8009 41.7327 44.9602C40.3107 47.1253 38.4763 49.7767 37.0218 52.4397C35.6471 54.6605 34.7399 57.1727 34.3625 59.8034C34.3625 60.0118 34.3625 60.197 34.3625 60.3938C34.3455 61.6328 34.6139 62.8573 35.144 63.9599C36.1198 65.7576 37.5539 67.2231 39.2796 68.1859C41.7198 69.6153 44.3154 70.7196 47.008 71.4741L46.3024 73.9403C41.9606 72.6203 38.4763 71.0457 35.9472 68.8922C34.7335 67.8883 33.7281 66.6267 32.9948 65.1872C32.2723 63.72 31.8996 62.0858 31.9094 60.4286C31.9094 60.1854 31.9094 59.9423 31.9094 59.6876C32.0982 57.7069 32.6358 55.7821 33.4941 54.0143C34.8534 51.1538 36.4289 48.4162 38.205 45.8286C39.0191 44.6013 39.7789 43.5129 40.3759 42.5056C40.8726 41.7876 41.3154 41.0288 41.7001 40.2363L43.9036 41.2668Z" fill="#F5A486"/>
<path d="M46.5943 44.1257C45.9211 45.0924 44.9169 45.736 43.8006 45.916C42.6843 46.096 41.5466 45.7979 40.6356 45.0866C40.189 44.7297 39.8127 44.2824 39.5284 43.7702C39.2441 43.258 39.0573 42.691 38.9786 42.1017C38.9 41.5124 38.9311 40.9123 39.0701 40.3359C39.2092 39.7594 39.4535 39.2178 39.789 38.7422L40.6898 37.3992C41.3629 36.4317 42.3681 35.7885 43.4852 35.6105C44.6023 35.4325 45.7399 35.7344 46.6486 36.4499C47.099 36.8014 47.4798 37.2445 47.769 37.7536C48.0583 38.2627 48.2503 38.8278 48.334 39.4164C48.4178 40.005 48.3916 40.6054 48.2569 41.1831C48.1223 41.7609 47.8818 42.3045 47.5495 42.7827L46.5943 44.1257Z" fill="#65B4E5"/>
<path d="M38.3561 43.3166C38.2046 43.535 38.1402 43.8084 38.1768 44.0773C38.2134 44.3461 38.348 44.5887 38.5514 44.7522L41.8727 47.3108C42.0775 47.4723 42.3338 47.5411 42.5859 47.502C42.8379 47.463 43.0653 47.3194 43.2186 47.1024C43.3724 46.8868 43.4404 46.6153 43.4079 46.3466C43.3754 46.0779 43.245 45.8337 43.0449 45.6668L39.7019 43.1082C39.4972 42.9466 39.2408 42.8779 38.9888 42.9169C38.7367 42.956 38.5093 43.0996 38.3561 43.3166Z" fill="#5291CE"/>
<path d="M37.9979 74.5767L44.3365 76.2323C45.7386 76.6079 47.2228 76.3835 48.4718 75.6071L46.9957 82.0789C46.701 83.3027 45.9662 84.3534 44.9505 85.0034C43.9347 85.6535 42.7198 85.8506 41.5688 85.5521L36.4024 84.1976C35.252 83.8886 34.2633 83.1059 33.653 82.0208C33.0426 80.9358 32.8604 79.6369 33.1462 78.4089L34.6549 71.9023C35.0269 72.56 35.518 73.132 36.0994 73.5852C36.6807 74.0384 37.3409 74.3637 38.0413 74.542" fill="#0A0D14"/>
<path d="M39.7891 77.9235C39.6758 77.8889 39.557 77.8792 39.44 77.8952C39.323 77.9111 39.2103 77.9523 39.1088 78.0162C39.0072 78.0801 38.9189 78.1654 38.8493 78.2669C38.7797 78.3684 38.7301 78.484 38.7037 78.6066C38.6713 78.7275 38.6622 78.8542 38.6772 78.979C38.6921 79.1037 38.7307 79.2239 38.7906 79.3323C38.8505 79.4406 38.9305 79.5348 39.0257 79.6091C39.1208 79.6833 39.2292 79.7362 39.3441 79.7643L41.9165 80.4358C42.0298 80.4671 42.1478 80.4743 42.2637 80.4569C42.3796 80.4395 42.4912 80.3979 42.592 80.3345C42.6929 80.271 42.781 80.187 42.8513 80.0872C42.9216 79.9873 42.9728 79.8737 43.0019 79.7528C43.0326 79.6311 43.04 79.504 43.0237 79.3792C43.0074 79.2544 42.9676 79.1344 42.9069 79.0263C42.8461 78.9182 42.7655 78.8243 42.6699 78.7502C42.5743 78.6761 42.4658 78.6233 42.3506 78.595L39.7891 77.9235Z" fill="#343434"/>
<path d="M50.6435 73.616C50.8274 73.6728 50.9833 73.8036 51.0785 73.9807C51.1737 74.1578 51.2006 74.3675 51.1536 74.5654C51.1005 74.761 50.9774 74.9265 50.8109 75.0262C50.6444 75.1258 50.4478 75.1516 50.2636 75.098L47.4091 74.2412C47.232 74.1776 47.0853 74.0428 47.0002 73.8654C46.915 73.6881 46.8982 73.4823 46.9532 73.2919C46.977 73.1946 47.0189 73.1034 47.0763 73.0237C47.1337 72.9439 47.2055 72.8773 47.2874 72.8277C47.3694 72.778 47.4598 72.7464 47.5534 72.7346C47.647 72.7229 47.7419 72.7313 47.8324 72.7593L50.6435 73.616Z" fill="#F5A486"/>
<path d="M49.7209 74.8205C49.8122 74.8471 49.8976 74.8926 49.9723 74.9544C50.047 75.0162 50.1096 75.0931 50.1565 75.1807C50.2034 75.2684 50.2336 75.365 50.2455 75.4651C50.2573 75.5651 50.2506 75.6667 50.2256 75.764C50.2007 75.8613 50.158 75.9524 50.1001 76.0322C50.0421 76.1119 49.97 76.1786 49.8879 76.2286C49.8057 76.2786 49.7152 76.3109 49.6213 76.3235C49.5275 76.3362 49.4323 76.329 49.3411 76.3024L46.7253 75.4456C46.541 75.3919 46.3844 75.2623 46.2897 75.0854C46.1951 74.9084 46.1702 74.6986 46.2206 74.5021C46.2709 74.3056 46.3924 74.1384 46.5583 74.0375C46.7242 73.9365 46.9209 73.91 47.1052 73.9637L49.7209 74.8205Z" fill="#F5A486"/>
<path d="M50.8496 72.1349C51.0338 72.1886 51.1905 72.3182 51.2851 72.4951C51.3798 72.6721 51.4046 72.8819 51.3543 73.0784C51.3039 73.2749 51.1824 73.4421 51.0165 73.543C50.8506 73.644 50.6539 73.6705 50.4697 73.6168L47.6151 72.7485C47.5193 72.7272 47.4285 72.6851 47.3485 72.625C47.2685 72.5648 47.2009 72.4878 47.1499 72.3986C47.0989 72.3095 47.0655 72.2102 47.0519 72.1068C47.0383 72.0034 47.0447 71.8981 47.0707 71.7974C47.0967 71.6968 47.1418 71.6028 47.2031 71.5215C47.2645 71.4401 47.3408 71.373 47.4275 71.3244C47.5141 71.2757 47.6091 71.2465 47.7067 71.2385C47.8043 71.2306 47.9024 71.2441 47.995 71.2781L50.8496 72.1349Z" fill="#F5A486"/>
<path d="M48.831 71.4046C49.116 71.4882 49.3829 71.6309 49.6162 71.8245C49.8496 72.0181 50.0449 72.2589 50.1911 72.533C50.3372 72.8072 50.4313 73.1093 50.468 73.4223C50.5046 73.7352 50.4832 74.0528 50.4048 74.3568C50.3264 74.6609 50.1926 74.9455 50.0111 75.1945C49.8296 75.4434 49.6039 75.6517 49.3469 75.8076C49.0899 75.9635 48.8066 76.0639 48.5132 76.103C48.2198 76.1421 47.9221 76.1192 47.6371 76.0356L45.7159 75.5146C45.4136 75.4474 45.1273 75.3147 44.875 75.1247C44.6226 74.9348 44.4095 74.6916 44.2487 74.4103C44.088 74.129 43.9831 73.8155 43.9405 73.4891C43.8979 73.1628 43.9186 72.8307 44.0012 72.5132C44.0837 72.1958 44.2265 71.8997 44.4207 71.6435C44.6148 71.3873 44.8562 71.1762 45.1298 71.0235C45.4035 70.8707 45.7036 70.7795 46.0117 70.7555C46.3197 70.7314 46.6291 70.775 46.9207 70.8836L48.831 71.4046Z" fill="#F5A486"/>
<path d="M82.3284 31.1712C84.2246 31.1642 86.1196 31.2685 88.005 31.4838C87.8868 32.9739 87.2538 34.364 86.229 35.3845C85.2041 36.4049 83.8605 36.9829 82.4587 37.0063C81.0302 37.0775 79.6315 36.5551 78.5566 35.549C77.4818 34.5428 76.8146 33.1313 76.6953 31.6112C78.5736 31.3432 80.466 31.204 82.361 31.1944" fill="#A8661F"/>
<path d="M76.6944 31.6104V31.7145C75.9564 31.8187 75.2183 31.9461 74.5237 32.0966C74.529 32.0582 74.529 32.0192 74.5237 31.9808L76.6944 31.6104Z" fill="#FAD491"/>
<path d="M88.0043 31.4844L90.1751 31.7854C89.9671 33.8243 89.0702 35.7127 87.652 37.0977C86.2337 38.4826 84.3913 39.2693 82.4689 39.3107H82.3169C80.3987 39.3605 78.5317 38.6472 77.0792 37.3098C75.6267 35.9723 74.6926 34.1063 74.4587 32.0748C75.1859 31.9243 75.924 31.797 76.6295 31.6928C76.758 33.1151 77.3676 34.4389 78.3443 35.4168C79.321 36.3948 80.5981 36.96 81.937 37.0068H82.4254C83.8265 36.9809 85.1688 36.402 86.1932 35.3821C87.2175 34.3622 87.8512 32.9735 87.9717 31.4844" fill="#DDAC0E"/>
<path d="M88.0046 31.4844C87.884 32.9735 87.2503 34.3622 86.226 35.3821C85.2016 36.402 83.8593 36.9809 82.4583 37.0068C83.8605 36.9811 85.2041 36.4027 86.2302 35.383C87.2564 34.3633 87.8923 32.9745 88.0154 31.4844" fill="#E48D4D"/>
<path d="M82.339 17.9023C82.7414 17.9038 83.1395 17.9903 83.5104 18.1566C83.8813 18.3229 84.2177 18.5659 84.5002 18.8716C84.7827 19.1772 85.0057 19.5394 85.1563 19.9374C85.307 20.3353 85.3824 20.7612 85.3781 21.1903V32.0384C85.3695 32.8932 85.0459 33.71 84.4772 34.3123C83.9085 34.9146 83.1404 35.2539 82.339 35.2569C81.5301 35.2569 80.7543 34.9142 80.1824 34.3041C79.6104 33.6939 79.2891 32.8665 79.2891 32.0037V21.1903C79.2891 20.3275 79.6104 19.5 80.1824 18.8899C80.7543 18.2798 81.5301 17.9371 82.339 17.9371" fill="#A8661F"/>
<path d="M82.3389 17.9023C82.7412 17.9038 83.1393 17.9903 83.5102 18.1566C83.8812 18.3229 84.2175 18.5659 84.5 18.8716C84.7825 19.1772 85.0055 19.5394 85.1562 19.9374C85.3069 20.3353 85.3822 20.7612 85.3779 21.1903V32.0384C85.378 32.8501 85.0926 33.6323 84.5781 34.2304C84.0636 34.8285 83.3575 35.1989 82.5993 35.2685V31.9573C82.5993 31.5307 82.5204 31.1082 82.367 30.7141C82.2136 30.3201 81.9887 29.9622 81.7054 29.661C81.422 29.3599 81.0857 29.1213 80.7158 28.9591C80.3458 28.7969 79.9494 28.7141 79.5494 28.7157H79.2781V21.1903C79.2781 20.3275 79.5994 19.5 80.1714 18.8899C80.7433 18.2798 81.5191 17.9371 82.328 17.9371" fill="#A8661F"/>
<path d="M71.8975 6.94986L72.1254 18.9672C72.4184 21.85 74.8171 26.2494 75.718 26.2726C76.0111 26.3305 80.3417 26.18 80.4069 26.1684C82.7022 26.1197 84.8861 25.1033 86.4808 23.3416C88.0755 21.5798 88.9512 19.2161 88.9163 16.7675L88.7209 6.60254L71.8975 6.94986Z" fill="#A8661F"/>
<path d="M89.72 13.5726C90.0397 13.5618 90.3582 13.6187 90.6571 13.74C90.956 13.8613 91.2295 14.0446 91.4616 14.2792C91.6937 14.5139 91.8799 14.7954 92.0095 15.1073C92.139 15.4192 92.2094 15.7554 92.2164 16.0965C92.2221 16.435 92.1651 16.7713 92.0486 17.0863C91.9321 17.4012 91.7585 17.6885 91.5376 17.9316C91.3167 18.1747 91.053 18.3689 90.7616 18.503C90.4701 18.6371 90.1567 18.7084 89.8394 18.713L85.8994 18.794L85.9537 13.642L89.72 13.5726Z" fill="#A8661F"/>
<path d="M70.0085 0.153098C76.1196 -0.0321516 83.2076 0.00258372 83.2076 0.00258372C84.2764 -0.0218095 85.3357 0.220986 86.3007 0.711544C87.2657 1.2021 88.1097 1.9268 88.7651 2.82764C89.0142 2.46406 89.3413 2.16927 89.7189 1.96787C90.0965 1.76646 90.5138 1.66428 90.936 1.66983C91.2114 1.66106 91.4864 1.70017 91.7501 1.78561L91.0011 2.61924C90.496 3.24695 90.2052 4.03873 90.1762 4.86539V6.41686V6.48633L90.3173 13.6185H89.3512V17.8213C89.3571 18.2278 89.212 18.6202 88.9476 18.913C88.6833 19.2058 88.3211 19.3752 87.9402 19.3844C87.7491 19.3874 87.5594 19.3503 87.3819 19.2752C87.2043 19.2 87.0423 19.0883 86.9053 18.9464C86.7682 18.8044 86.6586 18.6351 86.5829 18.448C86.5072 18.261 86.4668 18.0598 86.4639 17.856V14.3826C86.3549 13.815 86.0628 13.306 85.6384 12.9443C85.214 12.5826 84.6842 12.391 84.1411 12.4028V9.36929C84.0343 8.80258 83.7443 8.29387 83.3218 7.93201C82.8992 7.57014 82.3709 7.3781 81.8291 7.38943L71.9515 7.58625C71.9515 7.58625 71.8972 2.955 70.052 0.164677" fill="#3B2314"/>
<path d="M79.7879 20.4724C79.788 20.7505 79.7357 21.0257 79.634 21.2818C79.5324 21.5379 79.3834 21.7695 79.196 21.9629C79.0087 22.1562 78.7867 22.3074 78.5435 22.4074C78.3002 22.5073 78.0405 22.554 77.78 22.5447C77.522 22.5447 77.2665 22.4905 77.0282 22.3852C76.7898 22.2799 76.5732 22.1256 76.3908 21.931C76.2084 21.7364 76.0637 21.5054 75.965 21.2511C75.8662 20.9969 75.8154 20.7244 75.8154 20.4492L79.7879 20.4724Z" fill="#F7E9E9"/>
<path d="M88.2871 32.4672C88.2323 32.5618 88.1959 32.6672 88.1799 32.7771C88.1639 32.887 88.1687 32.9992 88.194 33.1071C88.2193 33.215 88.2645 33.3164 88.3271 33.4053C88.3897 33.4942 88.4683 33.5689 88.5584 33.6249C88.7384 33.7397 88.9537 33.7737 89.1572 33.7195C89.3606 33.6652 89.5356 33.5271 89.6438 33.3355L90.7292 31.2863C90.8368 31.0943 90.8686 30.8646 90.8178 30.6476C90.7669 30.4306 90.6375 30.2439 90.4578 30.1286C90.2778 30.0138 90.0625 29.9798 89.8591 30.034C89.6556 30.0883 89.4806 30.2264 89.3724 30.418L88.2871 32.4672Z" fill="#F5A486"/>
<path d="M90.6312 32.2471C90.5729 32.3401 90.5333 32.4449 90.5148 32.555C90.4963 32.6651 90.4994 32.7781 90.5239 32.8868C90.5484 32.9956 90.5937 33.0977 90.657 33.1869C90.7203 33.276 90.8002 33.3503 90.8917 33.4049C91.0703 33.5207 91.2847 33.5565 91.488 33.5044C91.6913 33.4524 91.8671 33.3167 91.977 33.127L92.4329 32.224C92.4896 32.1305 92.5279 32.0257 92.5455 31.916C92.5631 31.8062 92.5596 31.6938 92.5353 31.5856C92.5109 31.4773 92.4662 31.3754 92.4038 31.2862C92.3414 31.1969 92.2627 31.1221 92.1724 31.0662C91.9937 30.9504 91.7794 30.9147 91.5761 30.9667C91.3727 31.0187 91.197 31.1544 91.087 31.3441L90.6312 32.2471Z" fill="#F5A486"/>
<path d="M86.8547 31.4717C86.7999 31.5664 86.7635 31.6717 86.7475 31.7816C86.7315 31.8915 86.7363 32.0037 86.7616 32.1116C86.7869 32.2195 86.8322 32.3209 86.8948 32.4098C86.9573 32.4988 87.036 32.5735 87.126 32.6295C87.2141 32.6884 87.3123 32.7279 87.4149 32.7458C87.5175 32.7637 87.6224 32.7596 87.7234 32.7337C87.8245 32.7079 87.9197 32.6607 88.0035 32.5951C88.0873 32.5295 88.158 32.4467 88.2114 32.3516L89.2968 30.4877C89.352 30.3937 89.3891 30.289 89.4059 30.1795C89.4226 30.0701 89.4188 29.9582 89.3945 29.8504C89.3703 29.7426 89.3261 29.641 89.2646 29.5517C89.2031 29.4623 89.1255 29.3869 89.0363 29.3299C88.8576 29.2141 88.6433 29.1783 88.44 29.2304C88.2366 29.2824 88.0609 29.4181 87.9509 29.6078L86.8547 31.4717Z" fill="#F5A486"/>
<path d="M95.5599 64.8164H71.3652V68.8919H95.5599V64.8164Z" fill="#DDAC0E"/>
<path d="M80.1135 14.2439C80.1135 14.33 80.1296 14.4153 80.1608 14.4947C80.192 14.5741 80.2378 14.6461 80.2954 14.7065C80.353 14.7668 80.4213 14.8144 80.4963 14.8462C80.5713 14.8781 80.6515 14.8938 80.7322 14.8922C80.8124 14.8938 80.8921 14.8781 80.9665 14.8461C81.0409 14.8141 81.1085 14.7664 81.1653 14.7058C81.222 14.6453 81.2667 14.5732 81.2968 14.4939C81.3268 14.4145 81.3415 14.3295 81.34 14.2439C81.3401 14.0709 81.2764 13.9047 81.1627 13.7813C81.049 13.6579 80.8944 13.587 80.7322 13.584C80.569 13.587 80.4132 13.6574 80.2978 13.7806C80.1824 13.9037 80.1163 14.0698 80.1135 14.2439Z" fill="#25313C"/>
<path d="M74.3175 14.2439C74.316 14.3295 74.3307 14.4145 74.3608 14.4939C74.3908 14.5732 74.4355 14.6453 74.4922 14.7058C74.549 14.7664 74.6166 14.8141 74.691 14.8461C74.7654 14.8781 74.8451 14.8938 74.9253 14.8922C75.006 14.8938 75.0862 14.8781 75.1612 14.8462C75.2362 14.8144 75.3045 14.7668 75.3621 14.7065C75.4197 14.6461 75.4654 14.5741 75.4967 14.4947C75.5279 14.4153 75.544 14.33 75.544 14.2439C75.544 14.0689 75.4788 13.901 75.3628 13.7773C75.2467 13.6535 75.0894 13.584 74.9253 13.584C74.7631 13.587 74.6085 13.6579 74.4948 13.7813C74.3811 13.9047 74.3175 14.0709 74.3175 14.2439Z" fill="#25313C"/>
</g>
<defs>
<clipPath id="clip0">
<rect width="135" height="144" fill="white"/>
</clipPath>
</defs>
</svg>
